# Blender v2.79 (sub 0) OBJ File: ''
# www.blender.org
mtllib acube.mtl
o Cube_Cube.001
v -5.000000 -5.000000 5.000000
v -5.000000 5.000000 5.000000
v -5.000000 -5.000000 -5.000000
v -5.000000 5.000000 -5.000000
v 5.000000 -5.000000 5.000000
v 5.000000 5.000000 5.000000
v 5.000000 -5.000000 -5.000000
v 5.000000 5.000000 -5.000000
vt 0.749957 0.000087
vt 0.999913 0.250043
vt 0.749957 0.250043
vt 0.500000 0.500000
vt 0.250043 0.250043
vt 0.500000 0.250043
vt 0.749957 0.500000
vt 0.999913 0.749957
vt 0.749957 0.749957
vt 0.999913 0.500000
vt 0.000087 0.500000
vt 0.250043 0.500000
vt 0.999913 0.000087
vt 0.000087 0.250043
vn 1.0000 0.0000 0.0000
vn 0.0000 0.0000 1.0000
vn -1.0000 0.0000 0.0000
vn 0.0000 0.0000 -1.0000
vn 0.0000 1.0000 0.0000
vn 0.0000 -1.0000 0.0000
usemtl None
s off
f 3/1/1 2/2/1 1/3/1
f 7/4/2 4/5/2 3/6/2
f 5/7/3 8/8/3 7/9/3
f 1/3/4 6/10/4 5/7/4
f 1/3/5 7/4/5 3/6/5
f 6/11/6 4/5/6 8/12/6
f 3/1/1 4/13/1 2/2/1
f 7/4/2 8/12/2 4/5/2
f 5/7/3 6/10/3 8/8/3
f 1/3/4 2/2/4 6/10/4
f 1/3/5 5/7/5 7/4/5
f 6/11/6 2/14/6 4/5/6
